<?xml version="1.0" encoding="UTF-8" standalone="no"?>
<!DOCTYPE svg PUBLIC "-//W3C//DTD SVG 1.1//EN" "http://www.w3.org/Graphics/SVG/1.1/DTD/svg11.dtd">
<svg width="100%" height="100%" viewBox="0 0 144 144" version="1.1" xmlns="http://www.w3.org/2000/svg" xmlns:xlink="http://www.w3.org/1999/xlink" xml:space="preserve" xmlns:serif="http://www.serif.com/" style="fill-rule:evenodd;clip-rule:evenodd;stroke-linejoin:round;stroke-miterlimit:2;">
    <g id="Artboard1" transform="matrix(1,0,0,1,-106.25,0)">
        <rect x="106.25" y="0" width="143.5" height="143.5" style="fill:none;"/>
        <clipPath id="_clip1">
            <rect x="106.25" y="0" width="143.5" height="143.5"/>
        </clipPath>
        <g clip-path="url(#_clip1)">
            <g transform="matrix(1,0,0,1,0.25,0)">
                <path d="M188.4,71.7C188.4,77.405 183.705,82.1 178,82.1C172.295,82.1 167.6,77.405 167.6,71.7C167.6,65.995 172.295,61.3 178,61.3C183.705,61.3 188.4,65.995 188.4,71.7ZM224.2,45C222,41.1 219.2,37.5 216,34.3L204,41.3C200.3,38.1 196,35.6 191.4,34C187.39,38.04 184.108,42.742 181.7,47.9C196.337,47.427 210.638,52.42 221.8,61.9L229.4,57.5C228.169,53.142 226.424,48.945 224.2,45ZM178,125.1C182.5,125.1 187,124.5 191.4,123.4L191.4,109.4C195.968,107.777 200.204,105.338 203.9,102.2C202.461,96.719 200.057,91.538 196.8,86.9C189.88,99.807 178.396,109.686 164.6,114.6L164.6,123.3C169,124.5 173.5,125.1 178,125.1ZM131.8,45C129.5,49 127.8,53.1 126.6,57.5L138.6,64.5C137.729,69.26 137.729,74.14 138.6,78.9C144.3,80.4 149.9,80.9 155.5,80.4C147.753,67.978 144.9,53.107 147.5,38.7L140,34.4C136.8,37.6 134,41.1 131.8,45Z" style="fill:rgb(5,10,20);fill-rule:nonzero;"/>
            </g>
            <g transform="matrix(1,0,0,1,0.25,0)">
                <path d="M224.2,98.4C226.5,94.5 228.2,90.4 229.4,86L217.4,79C218.283,74.207 218.283,69.293 217.4,64.5C211.7,63 206.1,62.5 200.5,63C208.247,75.422 211.1,90.293 208.5,104.7L216,109.1C219.2,105.9 222,102.3 224.2,98.4ZM131.8,98.4C134,102.4 136.8,105.9 140,109.1L152,102.1C155.718,105.284 159.989,107.758 164.6,109.4C168.6,105.3 171.9,100.6 174.3,95.6C159.697,96.048 145.436,91.057 134.3,81.6L126.6,86C127.8,90.3 129.6,94.5 131.8,98.4ZM178,18.4C173.5,18.4 169,18.9 164.6,20.1L164.6,34C160.032,35.623 155.796,38.062 152.1,41.2C153.6,46.9 156.1,52 159.2,56.6C166.12,43.693 177.604,33.814 191.4,28.9L191.4,20C187.028,18.834 182.525,18.229 178,18.2L178,18.4Z" style="fill:rgb(0,180,255);fill-rule:nonzero;"/>
            </g>
            <g transform="matrix(1,0,0,1,0.25,0)">
                <path d="M178,9.2C212.322,9.227 240.55,37.478 240.55,71.8C240.55,106.141 212.291,134.4 177.95,134.4C177.933,134.4 177.917,134.4 177.9,134.4C143.578,134.373 115.35,106.122 115.35,71.8C115.35,37.459 143.609,9.2 177.95,9.2C177.967,9.2 177.983,9.2 178,9.2M178,0C138.639,0 106.25,32.389 106.25,71.75C106.25,111.111 138.639,143.5 178,143.5C217.361,143.5 249.75,111.111 249.75,71.75C249.75,32.389 217.361,0 178,0Z" style="fill:rgb(0,180,255);fill-rule:nonzero;"/>
            </g>
        </g>
    </g>
</svg>
